<svg viewBox="0 0 24 24" width="40" height="40" fill="currentColor" class="text-info-400 bg-info-100 rounded-full p-2 ml-3 md:ml-0"><path d="M12 1.5c5.799 0 10.5 4.7 10.5 10.5S17.799 22.5 12 22.5C6.2 22.5 1.5 17.799 1.5 12c0-.289.012-.578.035-.865a.75.75 0 0 1 1.495.123 9 9 0 1 0 2.637-5.653l2.445.003a.75.75 0 0 1 .744.664l.005.087a.75.75 0 0 1-.663.744l-.088.005-4.029-.005a.75.75 0 0 1-.744-.663l-.002-.014a.752.752 0 0 1-.003-.19l.006-3.913a.75.75 0 0 1 1.495-.085l.005.087-.004 2A10.474 10.474 0 0 1 12 1.5Zm0 4.381c.48 0 .87.39.87.87v1.212a4.46 4.46 0 0 1 1.46.518c.405.239.49.794.21 1.172a.814.814 0 0 1-1.066.205 3.618 3.618 0 0 0-1.772-.457c-.731 0-1.144.316-1.144.802 0 1.279 4.662.415 4.662 3.447 0 1.262-.781 2.253-2.35 2.525v1.075a.87.87 0 0 1-1.74 0v-1.049c-.798-.106-1.457-.364-1.993-.723-.373-.25-.443-.772-.185-1.14a.82.82 0 0 1 1.125-.21c.525.348 1.19.594 1.966.594.962 0 1.412-.427 1.412-.902 0-1.412-4.676-.426-4.676-3.482 0-1.17.878-2.162 2.352-2.41V6.75c0-.48.389-.869.869-.869Z" fill-rule="evenodd"></path></svg>
