<svg viewBox="0 0 24 24" width="2.5em" fill="currentColor" class="product-tabs__icon" data-v-cd788240=""><path d="m9.849 20.989.025-.005h4.3c.7.07 1.393-.448 1.542-1.198l.017-.107a1.493 1.493 0 0 0-1.044-1.61l-1.048-.39.15-3.308 5.378 1.983.064.02c.977.254 1.767-.309 1.767-1.311v-.074l-.008-.14a2.308 2.308 0 0 0-1.22-1.847L18 12.013v-.587a1.538 1.538 0 0 0-1.581-1.498 3.69 3.69 0 0 0-1.098.105l-.078.024a.667.667 0 0 0-.209.128l-.115.11-.9-.508.188-4.08v-.255c0-.16-.007-.319-.022-.478C14.065 3.772 13.387 3 12 3c-.979 0-1.655.407-1.975 1.136l-.045.107c-.166.425-.19.822-.166 1.53l.168 4.01-.925.515-.118-.114a.666.666 0 0 0-.287-.151 3.88 3.88 0 0 0-.925-.112l-.336.01c-.74.053-1.36.682-1.39 1.469L6 12.014l-1.785.995A2.297 2.297 0 0 0 3 14.97v.073c0 .994.786 1.553 1.76 1.313l.07-.022 5.378-1.983.15 3.308-1.05.39.07-.016a1.498 1.498 0 0 0 .471 2.956ZM12 4.332c.628 0 .801.197.858.772l.01.136.006.15v.356l-.207 4.39a.666.666 0 0 0 .339.612l1.774.998a.668.668 0 0 0 .88-.21l.087-.15c.017-.025.034-.05.053-.074l.017-.021.123-.02c.102-.011.204-.017.307-.017l.152.004c.172-.002.264.083.268.193v.954c0 .242.13.464.341.582l2.127 1.185a.98.98 0 0 1 .532.838l.002.082.007.035-.045-.023-6.234-2.298a.667.667 0 0 0-.896.595l-.214 4.703a.666.666 0 0 0 .434.654l1.54.573c.115.036.163.116.147.196a.16.16 0 0 1-.172.127l-4.41-.002-.127.012a.165.165 0 0 1-.1-.313l.14-.04 1.54-.574a.666.666 0 0 0 .434-.654l-.214-4.702a.667.667 0 0 0-.896-.595l-6.241 2.301-.038.017c-.001-.001.01-.018.01-.061v-.053a.966.966 0 0 1 .517-.81l2.14-1.193a.665.665 0 0 0 .343-.582v-.979c.003-.082.091-.167.199-.166l.172-.006c.114 0 .221.006.325.018l.126.018.018.022.052.075.046.08a.668.668 0 0 0 .918.282l1.8-1a.666.666 0 0 0 .342-.61l-.186-4.416-.006-.255c-.003-.392.024-.612.105-.795.1-.228.288-.341.755-.341Z"></path></svg>