<svg viewBox="0 0 24 24" width="1em" height="1em" fill="currentColor" class="a-pill__icon">
    <path d="m12.046 16.92-3.75 3.75-.028.027a1.29 1.29 0 0 1-.025.023l.053-.05a1.16 1.16 0 0 1-.102.091l-.045.033a.734.734 0 0 1-.043.03l-.034.02a1.122 1.122 0 0 1-1.14.002l-.039-.024a.684.684 0 0 1-.091-.065.576.576 0 0 1-.077-.067.367.367 0 0 1-.02-.02l-3.75-3.75a1.122 1.122 0 0 1 0-1.592 1.127 1.127 0 0 1 1.59.001l1.83 1.83V8.22a1.125 1.125 0 0 1 2.25 0v8.94l1.83-1.83a1.127 1.127 0 0 1 1.59 0c.44.439.44 1.151 0 1.59Zm9-8.25a1.127 1.127 0 0 1-1.592 0l-1.828-1.83v8.88a1.125 1.125 0 0 1-2.25 0V6.84l-1.83 1.83a1.127 1.127 0 0 1-1.92-.795c0-.288.109-.576.328-.796l3.75-3.75.021-.02.043-.038-.064.058a1.142 1.142 0 0 1 .19-.152l.038-.023A1.102 1.102 0 0 1 16.5 3a1.12 1.12 0 0 1 .572.155l.034.022a.717.717 0 0 1 .088.063.787.787 0 0 1 .049.04l.025.023.028.026 3.75 3.75c.439.44.439 1.152 0 1.592Z"></path></svg>