<svg width="707" height="112" xmlns="http://www.w3.org/2000/svg"><g fill-rule="nonzero" fill="none"><path fill="#231F20" d="M241.75.69h12.53v99.55h-12.53zM609.53 86.72h13.61v13.61h-13.61zM463.87 89.41l-.72-.18v11.1h-10.56V.69H465c0 21.84-.09 43.78 0 65.62 0 11.28 4.75 23.64 17.91 23.82 6.62.17 11.55-2.87 14.86-8.51 3.49-6.09 4.21-12.8 4.21-19.61-.09-4.92-.45-9.75-2.33-14.41a18.13 18.13 0 00-16.74-11.28c-4.48 0-6.63 1.34-10.39 3.31V30a26.14 26.14 0 0113.7-4.11c19.52 0 28.29 18.71 28.29 36.16 0 18-8.86 38.32-31.6 38.32-9.49 0-14.68-4.65-19.07-10.92l.03-.04zM524.84 80.37c0-9.31 4-16.12 11.72-19.7 6.36-3 17.82-3.67 25.34-4.56v9.57c-8.59 1.26-24.89 1.44-24.89 12.9 0 9 5.11 12 13.52 12 9.22 0 21.13-6.26 21-16.65l.09-25.07c0-10.92-7-12.71-16.21-12.71-11 .09-14.05 3.22-16.29 13.34h-10.61c-1-17.55 14.14-23.63 27.75-23.63 12.62 0 26.41 5.64 26.41 19.78v38.68c0 6.89 3.94 6.08 9.49 5.55v7.79s-2.33 2.23-7.52 2.23c-7.07 0-11.55-2.86-12.35-10.38-7.88 7.16-12.27 11.1-26.32 10.83-11.82 0-21.13-7.79-21.13-20v.03zM373.9 80.37c0-9.31 4-16.12 11.72-19.7 6.36-3 17.82-3.67 25.34-4.56v9.57c-8.6 1.26-24.89 1.44-24.89 12.9 0 9 5.1 12 13.52 12 9.22 0 21.13-6.26 21-16.65l.09-25.07c0-10.92-7-12.71-16.21-12.71-10.92.09-14.05 3.22-16.29 13.34h-10.61c-1-17.55 14.14-23.63 27.75-23.63 12.62 0 26.41 5.64 26.41 19.78v38.68c0 6.89 3.94 6.08 9.49 5.55v7.79s-2.33 2.23-7.52 2.23c-7.07 0-11.55-2.86-12.36-10.38-7.87 7.16-12.26 11.1-26.32 10.83-11.81 0-21.12-7.79-21.12-20v.03zM163.06 80.37c0-9.31 4-16.12 11.73-19.7 6.36-3 17.81-3.67 25.25-4.56v9.57c-8.51 1.26-24.8 1.44-24.8 12.9 0 9 5.1 12 13.51 12 9.23 0 21-6.26 21-16.65V48.85c.09-10.92-6.89-12.71-16.11-12.71-11 .09-14.06 3.22-16.29 13.34h-10.71c-.89-17.55 14.15-23.63 27.84-23.63 12.63 0 26.41 5.64 26.41 19.78v38.68c0 6.89 3.94 6.08 9.49 5.55v7.79s-2.32 2.23-7.52 2.23c-7.07 0-11.63-2.86-12.35-10.38-7.88 7.16-12.27 11.1-26.32 10.83-11.82 0-21.13-7.79-21.13-20v.04zM312.75 89.41l-.72-.18v11.1h-10.47V.69h12.35v65.62c0 11.28 4.84 23.64 17.91 23.82 6.62.17 11.55-2.87 14.86-8.51 3.58-6.09 4.3-12.8 4.21-19.61 0-4.92-.36-9.75-2.24-14.41a18.34 18.34 0 00-16.83-11.28c-4.48 0-6.54 1.34-10.3 3.31V30a25.9 25.9 0 0113.7-4.11c19.52 0 28.2 18.71 28.2 36.16 0 18-8.86 38.32-31.51 38.32-9.49 0-14.77-4.65-19.16-10.92v-.04zM271.66 25.85h12.53v74.49h-12.53zM682.94 100.33h-12.53V25.85h11.72V36.5c.18.09.27.18.45.18.63-.81 1.17-1.7 1.7-2.51 4.66-6.62 10.48-11.19 19-11.19 2.24 0 3 .54 3 3v10.21h-4c-11.37.09-19.34 8-19.34 19.43v44.71zM640.5 25.85h12.53v74.49H640.5zM.09 27.22v56.57C79.47 85.63 105 25 105 25 65.77 9.1 26.91 17 .09 27.22z"/><path d="M.09 35v57.71c54.63 37.33 108.65 7.54 108.65 7.54C87 52.1 27.34 39.34.09 35z" fill="#FDB913"/></g></svg>