<svg xmlns="http://www.w3.org/2000/svg" viewBox="0 0 32 32" width="24" height="24" fill="currentColor" class="block" title="Aparat logo"><path d="M28.057 25.12l-.853 3.202a4.955 4.955 0 01-6.06 3.515l-3.02-.814a15.185 15.185 0 009.933-5.904v.001zM16.007 2.127c7.66.004 13.871 6.214 13.871 13.873a13.873 13.873 0 01-16.586 13.604A13.881 13.881 0 012.39 18.703a13.867 13.867 0 015.905-14.24 13.877 13.877 0 017.71-2.335l.002-.001zM.892 18.415a15.172 15.172 0 005.606 9.527l-2.81-.749A4.952 4.952 0 01.17 21.135l.722-2.72zm19.825-.112a3.96 3.96 0 10-1.497 7.779 3.96 3.96 0 001.497-7.779zm-9.943-1.915a3.96 3.96 0 10-1.506 7.775 3.96 3.96 0 001.506-7.775zm5.48-2.02a1.76 1.76 0 10-.656 3.46 1.76 1.76 0 00.657-3.46zm6.482-6.544a3.961 3.961 0 00-1.5 7.778 3.94 3.94 0 002.974-.607 3.96 3.96 0 001.658-4.08 3.96 3.96 0 00-3.132-3.091zm2.43-3.86l3.152.837a4.953 4.953 0 013.522 6.044l-.866 3.277a15.168 15.168 0 00-5.808-10.159v.001zm-12.38 1.945a3.962 3.962 0 10-1.496 7.782 3.962 3.962 0 001.496-7.782zM7.107.673A4.957 4.957 0 0110.868.17l2.946.768a15.176 15.176 0 00-9.746 5.524l.735-2.776A4.953 4.953 0 017.107.673z" fill-rule="evenodd"/></svg>