<svg xmlns="http://www.w3.org/2000/svg" viewBox="0 0 32 32" width="24" height="24" fill="currentColor" class="block" title="Instagram logo"><path d="M17.638.001c2.88.005 3.49.028 4.951.095 1.703.078 2.866.348 3.883.743a7.841 7.841 0 012.833 1.845 7.842 7.842 0 011.845 2.833c.395 1.018.666 2.18.743 3.883.072 1.56.093 2.149.096 5.558v2.073c-.003 3.41-.024 3.999-.096 5.558-.077 1.703-.348 2.866-.743 3.883a7.844 7.844 0 01-1.845 2.833 7.842 7.842 0 01-2.833 1.845c-1.017.395-2.18.666-3.883.743-1.56.072-2.148.093-5.558.096h-2.073c-3.41-.003-3.998-.024-5.558-.096-1.702-.077-2.865-.348-3.883-.743a7.841 7.841 0 01-2.833-1.845A7.84 7.84 0 01.84 26.472c-.395-1.017-.665-2.18-.743-3.883-.067-1.462-.09-2.071-.095-4.95V14.35c.005-2.88.028-3.489.095-4.951.078-1.702.348-2.865.743-3.883a7.84 7.84 0 011.845-2.833A7.84 7.84 0 015.517.84C6.535.444 7.697.174 9.4.096c1.462-.067 2.071-.09 4.951-.095h3.287zm-.947 2.88h-1.392l-.323.001h-.596c-2.825.006-3.403.027-4.85.093-1.559.071-2.405.332-2.969.55a4.95 4.95 0 00-1.84 1.197 4.955 4.955 0 00-1.195 1.84c-.22.563-.48 1.41-.551 2.97-.066 1.445-.087 2.023-.092 4.848v.596l-.001.323v2.31c.006 2.825.027 3.403.093 4.849.07 1.56.332 2.406.55 2.97.29.747.638 1.28 1.197 1.84.56.559 1.093.906 1.84 1.196.563.219 1.41.48 2.97.55.385.018.709.032 1.03.044l.241.009c.769.024 1.605.035 3.302.039l.565.001h2.649l.565-.001c1.876-.004 2.7-.017 3.544-.048l.242-.01c.245-.009.499-.02.788-.034 1.56-.07 2.406-.331 2.97-.55a4.956 4.956 0 001.84-1.197 4.96 4.96 0 001.196-1.839c.219-.564.48-1.41.55-2.97.014-.29.025-.544.035-.788l.01-.243c.03-.843.043-1.668.047-3.543l.001-.565v-2.648l-.001-.566c.003-1.1-.01-2.202-.04-3.302l-.008-.241a108.34 108.34 0 00-.044-1.03c-.07-1.56-.331-2.407-.55-2.97a4.957 4.957 0 00-1.197-1.84 4.956 4.956 0 00-1.839-1.196c-.564-.22-1.41-.48-2.97-.551-1.446-.066-2.024-.087-4.849-.092h-.596l-.322-.001v-.001zm-.696 4.9a8.214 8.214 0 11.181 16.426 8.214 8.214 0 01-.181-16.426zm0 2.882a5.331 5.331 0 10-.146 10.662 5.331 5.331 0 00.146-10.662zm8.538-5.126a1.92 1.92 0 11.088 3.84 1.92 1.92 0 01-.088-3.84z" fill-rule="evenodd"/></svg>