<svg xmlns="http://www.w3.org/2000/svg" viewBox="0 0 32 32" width="24" height="24" fill="currentColor" class="block" title="Linkedin logo"><path d="M25.333 0A6.667 6.667 0 0132 6.667v18.666A6.667 6.667 0 0125.333 32H6.667A6.667 6.667 0 010 25.333V6.667A6.667 6.667 0 016.667 0h18.666zm-8.637 11.13h-4.174v15.305h4.174v-7.797c0-4.331 5.565-4.686 5.565 0v7.797h4.174V17.03c0-7.309-7.797-7.043-9.74-3.445V11.13h.001zm-6.957 0H5.565v15.305H9.74V11.13h-.001zM7.652 4.458a2.445 2.445 0 00-2.435 2.454 2.445 2.445 0 002.435 2.454 2.444 2.444 0 002.435-2.454 2.444 2.444 0 00-2.435-2.454z" fill-rule="evenodd"/></svg>