<svg xmlns="http://www.w3.org/2000/svg" viewBox="0 0 32 32" width="24" height="24" fill="currentColor" class="block" title="Twitter logo"><path d="M32 5.745a13.14 13.14 0 01-3.77 1.034 6.585 6.585 0 002.886-3.632 13.148 13.148 0 01-4.169 1.593 6.557 6.557 0 00-4.792-2.073 6.565 6.565 0 00-6.395 8.061 18.638 18.638 0 01-13.532-6.86 6.534 6.534 0 00-.89 3.301 6.562 6.562 0 002.922 5.464 6.539 6.539 0 01-2.974-.82v.082a6.569 6.569 0 005.266 6.437 6.574 6.574 0 01-2.965.113 6.572 6.572 0 006.133 4.56 13.173 13.173 0 01-8.154 2.81c-.53 0-1.052-.032-1.566-.092a18.583 18.583 0 0010.064 2.95c12.076 0 18.679-10.004 18.679-18.68 0-.285-.006-.568-.019-.85A13.343 13.343 0 0032 5.746" fill-rule="evenodd"/></svg>