<svg xmlns="http://www.w3.org/2000/svg" viewBox="0 0 24 24" width="36" height="36" fill="currentColor" class="block" title="youtube logo"><path d="M19.128 6.858c.248.248.427.558.519.897.528 2.127.406 5.487.01 7.696a2.012 2.012 0 0 1-1.416 1.416c-1.241.338-6.239.338-6.239.338s-4.997 0-6.239-.338a2.012 2.012 0 0 1-1.416-1.416c-.531-2.118-.386-5.48-.01-7.686a2.011 2.011 0 0 1 1.416-1.416C6.995 6.01 11.992 6 11.992 6s4.997 0 6.239.339c.339.091.648.27.897.519Zm-4.581 4.745-4.146 2.4v-4.8l4.146 2.4Z" fill-rule="evenodd"/></svg>