<svg xmlns="http://www.w3.org/2000/svg" viewBox="0 0 24 24" width="26px" height="26px" fill="currentColor" class="a-steppers__icon text-success-400"><path d="M12.75 8.25A3.754 3.754 0 0 0 16.5 12a3.754 3.754 0 0 0 3.75-3.75A3.754 3.754 0 0 0 16.5 4.5a3.754 3.754 0 0 0-3.75 3.75ZM10.5 19.5h11.25a.75.75 0 0 0 .75-.75V16.5a3.754 3.754 0 0 0-3.75-3.75H13.5a3.754 3.754 0 0 0-3.75 3.75v2.25c0 .415.335.75.75.75ZM6.375 12A2.628 2.628 0 0 1 3.75 9.375 2.628 2.628 0 0 1 6.375 6.75 2.628 2.628 0 0 1 9 9.375 2.628 2.628 0 0 1 6.375 12ZM2.25 18.75H7.5a.75.75 0 0 0 .75-.75v-1.5c0-.349.078-.683.23-.993a1.934 1.934 0 0 0-.082-1.89 1.838 1.838 0 0 0-1.57-.867H5.25A3.754 3.754 0 0 0 1.5 16.5V18c0 .415.335.75.75.75Z" fill-rule="evenodd"/></svg>