<svg xmlns="http://www.w3.org/2000/svg" width="80" height="15" role="img"><path d="M44.467 0c0 3.121-.014 6.257 0 9.379 0 1.612.7 3.378 2.637 3.404.975.024 1.701-.41 2.189-1.216.514-.87.62-1.83.62-2.803-.014-.703-.067-1.393-.343-2.06-.41-.972-1.383-1.609-2.466-1.612-.66 0-.976.192-1.53.473V4.19a3.935 3.935 0 012.018-.587c2.874 0 4.166 2.674 4.166 5.168 0 2.572-1.305 5.477-4.654 5.477-1.397 0-2.162-.665-2.808-1.561l.004-.006-.106-.026v1.587H42.64V0h1.828zM22.216 0v9.379c0 1.612.712 3.378 2.637 3.404.975.024 1.701-.41 2.189-1.216.527-.87.633-1.83.62-2.803 0-.703-.053-1.393-.33-2.06-.418-.971-1.394-1.606-2.479-1.612-.66 0-.963.192-1.517.473V4.19a3.888 3.888 0 012.018-.587c2.875 0 4.153 2.674 4.153 5.168 0 2.572-1.305 5.477-4.64 5.477-1.398 0-2.176-.665-2.822-1.561v-.006l-.106-.026v1.587h-1.542V0h1.819zm35.69 3.597c1.86 0 3.89.806 3.89 2.827v5.529c0 .984.58.869 1.398.793v1.113s-.344.319-1.108.319c-1.041 0-1.7-.409-1.819-1.484-1.16 1.024-1.807 1.587-3.876 1.548-1.678 0-3.013-1.035-3.106-2.674l-.006-.18c0-1.33.59-2.304 1.726-2.815.937-.43 2.625-.525 3.732-.652v1.368c-1.265.18-3.665.205-3.665 1.843 0 1.287.752 1.715 1.99 1.715 1.359 0 3.113-.894 3.093-2.38l.014-3.582c0-1.561-1.031-1.817-2.388-1.817-1.62.013-2.069.46-2.399 1.907H53.82c-.147-2.509 2.082-3.378 4.087-3.378zm-22.228 0c1.858 0 3.889.806 3.889 2.827v5.529c0 .984.58.869 1.398.793v1.113s-.344.319-1.108.319c-1.041 0-1.7-.409-1.82-1.484-1.16 1.024-1.806 1.587-3.876 1.548-1.677 0-3.012-1.035-3.105-2.674l-.006-.18c0-1.33.59-2.304 1.726-2.815.937-.43 2.625-.525 3.732-.652v1.368c-1.266.18-3.665.205-3.665 1.843 0 1.287.75 1.715 1.99 1.715 1.359 0 3.113-.894 3.093-2.38l.014-3.582c0-1.561-1.031-1.817-2.388-1.817-1.608.013-2.069.46-2.399 1.907h-1.562c-.147-2.509 2.082-3.378 4.087-3.378zm-31.05-.001c1.86 0 3.889.806 3.889 2.827v5.528c0 .985.58.87 1.397.793v1.114s-.341.319-1.107.319c-1.041 0-1.713-.41-1.819-1.484-1.16 1.023-1.807 1.586-3.876 1.548-1.679 0-3.014-1.035-3.107-2.674L0 11.388c0-1.33.59-2.304 1.727-2.815.937-.43 2.623-.525 3.719-.652v1.368c-1.253.18-3.652.205-3.652 1.843 0 1.287.75 1.715 1.99 1.715 1.359 0 3.092-.894 3.092-2.38V6.884c.013-1.56-1.015-1.816-2.372-1.816-1.62.012-2.071.46-2.4 1.906H.527c-.13-2.508 2.084-3.377 4.1-3.377zm13.21 0v10.646h-1.844V3.596h1.845zm54.32 0v10.646h-1.845V3.596h1.845zm-4.402 8.7v1.945h-2.004v-1.945h2.004zm11.802-9.11c.33 0 .442.077.442.429v1.459h-.59c-1.674.013-2.847 1.143-2.847 2.777v6.39h-1.846V3.596h1.726v1.522c.027.013.04.026.067.026.092-.116.172-.243.25-.359.686-.946 1.543-1.6 2.798-1.6zM13.434 0v14.228h-1.845V0h1.845z" fill="#231F20" fill-rule="nonzero"></path></svg>